<svg width="0" height="0" class="hidden">
  <symbol fill="none" xmlns="http://www.w3.org/2000/svg" viewBox="0 0 439 118" id="full">
    <path d="M64.1026 58.2394C64.1026 61.3359 61.5924 63.8461 58.496 63.8461C55.3995 63.8461 52.8894 61.3359 52.8894 58.2394C52.8894 55.143 55.3995 52.6328 58.496 52.6328C61.5924 52.6328 64.1026 55.143 64.1026 58.2394Z" fill="currentColor"></path>
    <path d="M64.1026 58.2394C64.1026 61.3359 61.5924 63.8461 58.496 63.8461C55.3995 63.8461 52.8894 61.3359 52.8894 58.2394C52.8894 55.143 55.3995 52.6328 58.496 52.6328C61.5924 52.6328 64.1026 55.143 64.1026 58.2394Z" stroke="white" stroke-width="2"></path>
    <path d="M64.1026 58.2394C64.1026 61.3359 61.5924 63.8461 58.496 63.8461C55.3995 63.8461 52.8894 61.3359 52.8894 58.2394C52.8894 55.143 55.3995 52.6328 58.496 52.6328C61.5924 52.6328 64.1026 55.143 64.1026 58.2394Z" stroke="white" stroke-width="2"></path>
    <path d="M43.6098 40.6211L43.6096 40.6209C41.1088 38.0297 38.1035 36.2249 34.8976 35.2065C35.8012 38.445 37.4995 41.5131 40.0003 44.1042L43.6098 40.6211ZM43.6098 40.6211C46.1108 43.2112 47.8092 46.2784 48.7127 49.5179M43.6098 40.6211L48.7127 49.5179M48.7127 49.5179C45.507 48.5002 42.5015 46.6946 40.0004 44.1044L48.7127 49.5179Z" fill="currentColor"></path>
    <path d="M43.6098 40.6211L43.6096 40.6209C41.1088 38.0297 38.1035 36.2249 34.8976 35.2065C35.8012 38.445 37.4995 41.5131 40.0003 44.1042L43.6098 40.6211ZM43.6098 40.6211C46.1108 43.2112 47.8092 46.2784 48.7127 49.5179M43.6098 40.6211L48.7127 49.5179M48.7127 49.5179C45.507 48.5002 42.5015 46.6946 40.0004 44.1044L48.7127 49.5179Z" stroke="white" stroke-width="2"></path>
    <path d="M43.6098 40.6211L43.6096 40.6209C41.1088 38.0297 38.1035 36.2249 34.8976 35.2065C35.8012 38.445 37.4995 41.5131 40.0003 44.1042L43.6098 40.6211ZM43.6098 40.6211C46.1108 43.2112 47.8092 46.2784 48.7127 49.5179M43.6098 40.6211L48.7127 49.5179M48.7127 49.5179C45.507 48.5002 42.5015 46.6946 40.0004 44.1044L48.7127 49.5179Z" stroke="white" stroke-width="2"></path>
    <path d="M43.5089 77.5854L43.5089 77.5854C46.0988 75.0858 47.9044 72.0798 48.9222 68.874C45.6839 69.7787 42.6167 71.4779 40.0254 73.9777L43.5089 77.5854ZM43.5089 77.5854C40.9167 80.0873 37.8495 81.7849 34.6109 82.6901M43.5089 77.5854L34.6109 82.6901M34.6109 82.6901C35.6288 79.4851 37.4353 76.48 40.0252 73.9779L34.6109 82.6901Z" fill="currentColor"></path>
    <path d="M43.5089 77.5854L43.5089 77.5854C46.0988 75.0858 47.9044 72.0798 48.9222 68.874C45.6839 69.7787 42.6167 71.4779 40.0254 73.9777L43.5089 77.5854ZM43.5089 77.5854C40.9167 80.0873 37.8495 81.7849 34.6109 82.6901M43.5089 77.5854L34.6109 82.6901M34.6109 82.6901C35.6288 79.4851 37.4353 76.48 40.0252 73.9779L34.6109 82.6901Z" stroke="white" stroke-width="2"></path>
    <path d="M43.5089 77.5854L43.5089 77.5854C46.0988 75.0858 47.9044 72.0798 48.9222 68.874C45.6839 69.7787 42.6167 71.4779 40.0254 73.9777L43.5089 77.5854ZM43.5089 77.5854C40.9167 80.0873 37.8495 81.7849 34.6109 82.6901M43.5089 77.5854L34.6109 82.6901M34.6109 82.6901C35.6288 79.4851 37.4353 76.48 40.0252 73.9779L34.6109 82.6901Z" stroke="white" stroke-width="2"></path>
    <path d="M73.3821 77.5616L73.3824 77.562C75.8831 80.153 78.8891 81.9587 82.0938 82.9765C81.1891 79.738 79.4901 76.67 76.9917 74.0801L73.3821 77.5616ZM73.3821 77.5616C70.881 74.9726 69.1816 71.9054 68.2778 68.6658M73.3821 77.5616L68.2778 68.6658M68.2778 68.6658C71.4834 69.6825 74.489 71.4883 76.9914 74.0797L68.2778 68.6658Z" fill="currentColor"></path>
    <path d="M73.3821 77.5616L73.3824 77.562C75.8831 80.153 78.8891 81.9587 82.0938 82.9765C81.1891 79.738 79.4901 76.67 76.9917 74.0801L73.3821 77.5616ZM73.3821 77.5616C70.881 74.9726 69.1816 71.9054 68.2778 68.6658M73.3821 77.5616L68.2778 68.6658M68.2778 68.6658C71.4834 69.6825 74.489 71.4883 76.9914 74.0797L68.2778 68.6658Z" stroke="white" stroke-width="2"></path>
    <path d="M73.3821 77.5616L73.3824 77.562C75.8831 80.153 78.8891 81.9587 82.0938 82.9765C81.1891 79.738 79.4901 76.67 76.9917 74.0801L73.3821 77.5616ZM73.3821 77.5616C70.881 74.9726 69.1816 71.9054 68.2778 68.6658M73.3821 77.5616L68.2778 68.6658M68.2778 68.6658C71.4834 69.6825 74.489 71.4883 76.9914 74.0797L68.2778 68.6658Z" stroke="white" stroke-width="2"></path>
    <path d="M73.4858 40.5975L73.4863 40.597C76.0753 38.0961 79.1434 36.3967 82.3821 35.4938C81.3653 38.6985 79.5594 41.7039 76.9668 44.205L76.9663 44.2054C74.3766 46.7071 71.3097 48.4037 68.0708 49.3086C69.0876 46.1034 70.8935 43.0984 73.4858 40.5975Z" fill="currentColor"></path>
    <path d="M73.4858 40.5975L73.4863 40.597C76.0753 38.0961 79.1434 36.3967 82.3821 35.4938C81.3653 38.6985 79.5594 41.7039 76.9668 44.205L76.9663 44.2054C74.3766 46.7071 71.3097 48.4037 68.0708 49.3086C69.0876 46.1034 70.8935 43.0984 73.4858 40.5975Z" stroke="white" stroke-width="2"></path>
    <path d="M73.4858 40.5975L73.4863 40.597C76.0753 38.0961 79.1434 36.3967 82.3821 35.4938C81.3653 38.6985 79.5594 41.7039 76.9668 44.205L76.9663 44.2054C74.3766 46.7071 71.3097 48.4037 68.0708 49.3086C69.0876 46.1034 70.8935 43.0984 73.4858 40.5975Z" stroke="white" stroke-width="2"></path>
    <path d="M58.544 39.521C58.5228 39.5218 58.5067 39.5223 58.496 39.5226C58.4854 39.5223 58.4693 39.5218 58.4481 39.521C58.4004 39.5193 58.3268 39.5161 58.2299 39.5102C58.0362 39.4984 57.7501 39.4761 57.3932 39.434C56.6778 39.3498 55.686 39.1874 54.5862 38.8762C52.3673 38.2483 49.8215 37.0472 48.1489 34.7773C46.5066 32.5487 45.5802 29.1162 46.9202 23.7388C48.2185 18.528 51.6343 11.5552 58.496 2.26819C65.3576 11.5556 68.7735 18.5286 70.0719 23.7394C71.4118 29.1169 70.4854 32.5493 68.8431 34.7778C67.1705 37.0476 64.6247 38.2486 62.4058 38.8764C61.3061 39.1876 60.3143 39.3499 59.5989 39.4341C59.2419 39.4761 58.9559 39.4984 58.7621 39.5102C58.6653 39.5161 58.5917 39.5193 58.544 39.521Z" fill="currentColor"></path>
    <path d="M58.544 39.521C58.5228 39.5218 58.5067 39.5223 58.496 39.5226C58.4854 39.5223 58.4693 39.5218 58.4481 39.521C58.4004 39.5193 58.3268 39.5161 58.2299 39.5102C58.0362 39.4984 57.7501 39.4761 57.3932 39.434C56.6778 39.3498 55.686 39.1874 54.5862 38.8762C52.3673 38.2483 49.8215 37.0472 48.1489 34.7773C46.5066 32.5487 45.5802 29.1162 46.9202 23.7388C48.2185 18.528 51.6343 11.5552 58.496 2.26819C65.3576 11.5556 68.7735 18.5286 70.0719 23.7394C71.4118 29.1169 70.4854 32.5493 68.8431 34.7778C67.1705 37.0476 64.6247 38.2486 62.4058 38.8764C61.3061 39.1876 60.3143 39.3499 59.5989 39.4341C59.2419 39.4761 58.9559 39.4984 58.7621 39.5102C58.6653 39.5161 58.5917 39.5193 58.544 39.521Z" stroke="white" stroke-width="2"></path>
    <path d="M58.544 39.521C58.5228 39.5218 58.5067 39.5223 58.496 39.5226C58.4854 39.5223 58.4693 39.5218 58.4481 39.521C58.4004 39.5193 58.3268 39.5161 58.2299 39.5102C58.0362 39.4984 57.7501 39.4761 57.3932 39.434C56.6778 39.3498 55.686 39.1874 54.5862 38.8762C52.3673 38.2483 49.8215 37.0472 48.1489 34.7773C46.5066 32.5487 45.5802 29.1162 46.9202 23.7388C48.2185 18.528 51.6343 11.5552 58.496 2.26819C65.3576 11.5556 68.7735 18.5286 70.0719 23.7394C71.4118 29.1169 70.4854 32.5493 68.8431 34.7778C67.1705 37.0476 64.6247 38.2486 62.4058 38.8764C61.3061 39.1876 60.3143 39.3499 59.5989 39.4341C59.2419 39.4761 58.9559 39.4984 58.7621 39.5102C58.6653 39.5161 58.5917 39.5193 58.544 39.521Z" stroke="white" stroke-width="2"></path>
    <path d="M58.4481 78.6624C58.4692 78.6616 58.4853 78.6612 58.496 78.6609C58.5067 78.6612 58.5228 78.6616 58.5439 78.6624C58.5916 78.6642 58.6652 78.6674 58.7621 78.6733C58.9558 78.6851 59.2419 78.7074 59.5988 78.7494C60.3141 78.8336 61.3059 78.996 62.4056 79.3072C64.6244 79.9351 67.17 81.1362 68.8426 83.406C70.4848 85.6345 71.4111 89.0669 70.0713 94.4441C68.7729 99.6546 65.3573 106.627 58.496 115.914C51.6343 106.627 48.2185 99.6546 46.9201 94.4441C45.5802 89.0669 46.5066 85.6345 48.1489 83.406C49.8215 81.1362 52.3673 79.9351 54.5862 79.3072C55.686 78.996 56.6778 78.8336 57.3932 78.7494C57.7501 78.7074 58.0362 78.6851 58.2299 78.6733C58.3268 78.6674 58.4004 78.6642 58.4481 78.6624Z" fill="currentColor"></path>
    <path d="M58.4481 78.6624C58.4692 78.6616 58.4853 78.6612 58.496 78.6609C58.5067 78.6612 58.5228 78.6616 58.5439 78.6624C58.5916 78.6642 58.6652 78.6674 58.7621 78.6733C58.9558 78.6851 59.2419 78.7074 59.5988 78.7494C60.3141 78.8336 61.3059 78.996 62.4056 79.3072C64.6244 79.9351 67.17 81.1362 68.8426 83.406C70.4848 85.6345 71.4111 89.0669 70.0713 94.4441C68.7729 99.6546 65.3573 106.627 58.496 115.914C51.6343 106.627 48.2185 99.6546 46.9201 94.4441C45.5802 89.0669 46.5066 85.6345 48.1489 83.406C49.8215 81.1362 52.3673 79.9351 54.5862 79.3072C55.686 78.996 56.6778 78.8336 57.3932 78.7494C57.7501 78.7074 58.0362 78.6851 58.2299 78.6733C58.3268 78.6674 58.4004 78.6642 58.4481 78.6624Z" stroke="white" stroke-width="2"></path>
    <path d="M58.4481 78.6624C58.4692 78.6616 58.4853 78.6612 58.496 78.6609C58.5067 78.6612 58.5228 78.6616 58.5439 78.6624C58.5916 78.6642 58.6652 78.6674 58.7621 78.6733C58.9558 78.6851 59.2419 78.7074 59.5988 78.7494C60.3141 78.8336 61.3059 78.996 62.4056 79.3072C64.6244 79.9351 67.17 81.1362 68.8426 83.406C70.4848 85.6345 71.4111 89.0669 70.0713 94.4441C68.7729 99.6546 65.3573 106.627 58.496 115.914C51.6343 106.627 48.2185 99.6546 46.9201 94.4441C45.5802 89.0669 46.5066 85.6345 48.1489 83.406C49.8215 81.1362 52.3673 79.9351 54.5862 79.3072C55.686 78.996 56.6778 78.8336 57.3932 78.7494C57.7501 78.7074 58.0362 78.6851 58.2299 78.6733C58.3268 78.6674 58.4004 78.6642 58.4481 78.6624Z" stroke="white" stroke-width="2"></path>
    <path d="M38.9253 59.0439C38.9261 59.0651 38.9266 59.0812 38.9269 59.0919C38.9268 59.0946 38.9267 59.0977 38.9266 59.1012C38.9263 59.1112 38.9259 59.1241 38.9253 59.1398C38.9236 59.1875 38.9204 59.2611 38.9145 59.358C38.9027 59.5517 38.8804 59.8378 38.8383 60.1947C38.7541 60.9101 38.5917 61.9019 38.2805 63.0017C37.6526 65.2206 36.4515 67.7664 34.1816 69.439C31.953 71.0813 28.5205 72.0077 23.1431 70.6677C17.9323 69.3694 10.9595 65.9535 1.67246 59.0919C10.9595 52.2302 17.9323 48.8144 23.1431 47.516C28.5205 46.1761 31.953 47.1025 34.1816 48.7448C36.4515 50.4174 37.6526 52.9632 38.2805 55.1821C38.5917 56.2819 38.7541 57.2737 38.8383 57.9891C38.8804 58.346 38.9027 58.6321 38.9145 58.8258C38.9204 58.9226 38.9236 58.9962 38.9253 59.0439Z" fill="currentColor"></path>
    <path d="M38.9253 59.0439C38.9261 59.0651 38.9266 59.0812 38.9269 59.0919C38.9268 59.0946 38.9267 59.0977 38.9266 59.1012C38.9263 59.1112 38.9259 59.1241 38.9253 59.1398C38.9236 59.1875 38.9204 59.2611 38.9145 59.358C38.9027 59.5517 38.8804 59.8378 38.8383 60.1947C38.7541 60.9101 38.5917 61.9019 38.2805 63.0017C37.6526 65.2206 36.4515 67.7664 34.1816 69.439C31.953 71.0813 28.5205 72.0077 23.1431 70.6677C17.9323 69.3694 10.9595 65.9535 1.67246 59.0919C10.9595 52.2302 17.9323 48.8144 23.1431 47.516C28.5205 46.1761 31.953 47.1025 34.1816 48.7448C36.4515 50.4174 37.6526 52.9632 38.2805 55.1821C38.5917 56.2819 38.7541 57.2737 38.8383 57.9891C38.8804 58.346 38.9027 58.6321 38.9145 58.8258C38.9204 58.9226 38.9236 58.9962 38.9253 59.0439Z" stroke="white" stroke-width="2"></path>
    <path d="M38.9253 59.0439C38.9261 59.0651 38.9266 59.0812 38.9269 59.0919C38.9268 59.0946 38.9267 59.0977 38.9266 59.1012C38.9263 59.1112 38.9259 59.1241 38.9253 59.1398C38.9236 59.1875 38.9204 59.2611 38.9145 59.358C38.9027 59.5517 38.8804 59.8378 38.8383 60.1947C38.7541 60.9101 38.5917 61.9019 38.2805 63.0017C37.6526 65.2206 36.4515 67.7664 34.1816 69.439C31.953 71.0813 28.5205 72.0077 23.1431 70.6677C17.9323 69.3694 10.9595 65.9535 1.67246 59.0919C10.9595 52.2302 17.9323 48.8144 23.1431 47.516C28.5205 46.1761 31.953 47.1025 34.1816 48.7448C36.4515 50.4174 37.6526 52.9632 38.2805 55.1821C38.5917 56.2819 38.7541 57.2737 38.8383 57.9891C38.8804 58.346 38.9027 58.6321 38.9145 58.8258C38.9204 58.9226 38.9236 58.9962 38.9253 59.0439Z" stroke="white" stroke-width="2"></path>
    <path d="M78.0667 59.1398C78.0659 59.1187 78.0654 59.1026 78.0651 59.0919C78.0654 59.0812 78.0659 59.0651 78.0667 59.0439C78.0684 58.9962 78.0716 58.9226 78.0775 58.8258C78.0893 58.6321 78.1116 58.346 78.1537 57.9891C78.2379 57.2737 78.4003 56.2819 78.7115 55.1821C79.3394 52.9632 80.5405 50.4174 82.8104 48.7448C85.039 47.1025 88.4715 46.1761 93.8489 47.516C99.0597 48.8144 106.032 52.2302 115.32 59.0919C106.032 65.9539 99.0596 69.3699 93.8489 70.6683C88.4715 72.0083 85.039 71.0819 82.8104 69.4396C80.5405 67.7669 79.3394 65.2209 78.7115 63.0019C78.4003 61.9021 78.2379 60.9102 78.1537 60.1948C78.1116 59.8378 78.0893 59.5517 78.0775 59.358C78.0716 59.2611 78.0684 59.1875 78.0667 59.1398Z" fill="currentColor"></path>
    <path d="M78.0667 59.1398C78.0659 59.1187 78.0654 59.1026 78.0651 59.0919C78.0654 59.0812 78.0659 59.0651 78.0667 59.0439C78.0684 58.9962 78.0716 58.9226 78.0775 58.8258C78.0893 58.6321 78.1116 58.346 78.1537 57.9891C78.2379 57.2737 78.4003 56.2819 78.7115 55.1821C79.3394 52.9632 80.5405 50.4174 82.8104 48.7448C85.039 47.1025 88.4715 46.1761 93.8489 47.516C99.0597 48.8144 106.032 52.2302 115.32 59.0919C106.032 65.9539 99.0596 69.3699 93.8489 70.6683C88.4715 72.0083 85.039 71.0819 82.8104 69.4396C80.5405 67.7669 79.3394 65.2209 78.7115 63.0019C78.4003 61.9021 78.2379 60.9102 78.1537 60.1948C78.1116 59.8378 78.0893 59.5517 78.0775 59.358C78.0716 59.2611 78.0684 59.1875 78.0667 59.1398Z" stroke="white" stroke-width="2"></path>
    <path d="M78.0667 59.1398C78.0659 59.1187 78.0654 59.1026 78.0651 59.0919C78.0654 59.0812 78.0659 59.0651 78.0667 59.0439C78.0684 58.9962 78.0716 58.9226 78.0775 58.8258C78.0893 58.6321 78.1116 58.346 78.1537 57.9891C78.2379 57.2737 78.4003 56.2819 78.7115 55.1821C79.3394 52.9632 80.5405 50.4174 82.8104 48.7448C85.039 47.1025 88.4715 46.1761 93.8489 47.516C99.0597 48.8144 106.032 52.2302 115.32 59.0919C106.032 65.9539 99.0596 69.3699 93.8489 70.6683C88.4715 72.0083 85.039 71.0819 82.8104 69.4396C80.5405 67.7669 79.3394 65.2209 78.7115 63.0019C78.4003 61.9021 78.2379 60.9102 78.1537 60.1948C78.1116 59.8378 78.0893 59.5517 78.0775 59.358C78.0716 59.2611 78.0684 59.1875 78.0667 59.1398Z" stroke="white" stroke-width="2"></path>
    <path d="M202.15 74.4904H159.244V69.1144H208.026V87.2425H146.492V30.9399H208.026V49.068H165.12H164.62V49.568V55.9441V56.4441H165.12H196.827V61.8201H159.244V43.692H202.15H202.65V43.192V36.816V36.316H202.15H152.368H151.868V36.816V81.3665V81.8665H152.368H202.15H202.65V81.3665V74.9904V74.4904H202.15ZM262.998 58.8054L263.876 59.8194V58.4781V30.9399H282.004V87.2425H263.605L233.222 52.0795V43.8005L265.941 81.6932L266.09 81.8665H266.319H276.128H276.628V81.3665V36.816V36.316H276.128H269.752H269.252V36.816V74.3024L236.534 36.4888L236.384 36.316H236.156H226.346H225.846V36.816V81.3665V81.8665H226.346H232.722H233.222V81.3665V63.4152L238.598 69.6184V87.2425H220.47V30.9399H238.87L262.998 58.8054ZM334.207 87.2425H328.01C328.643 86.1492 329.848 84.0426 331.421 81.2924C334.342 76.1835 338.534 68.8535 342.692 61.6714L342.693 61.6695C346.862 54.3945 351.602 46.1401 356.914 37.0686L357.355 36.316H356.483H349.126H348.839L348.694 36.564C341.426 49.0227 336.315 57.9422 330.634 67.8556C328.386 71.7773 326.05 75.8546 323.455 80.368C321.736 77.4134 315.282 66.3214 308.891 55.3149C305.233 49.0156 301.595 42.7446 298.877 38.0435C297.519 35.6929 296.39 33.7352 295.604 32.3629C295.267 31.7759 294.994 31.2967 294.792 30.9399H315.732L326.559 49.569L323.457 54.9463L312.773 36.5647L312.629 36.316H312.341H304.984H304.082L304.56 37.081C305.371 38.3791 309.594 45.6825 313.819 52.9959L314.852 54.7841C318.702 61.4505 322.315 67.7055 323.032 68.8757L323.471 69.5927L323.891 68.8641L339.913 41.0711L339.914 41.0706L345.737 30.9399H366.643C364.553 34.5108 357.368 47.0299 350.295 59.3533L349.673 60.4357C348.37 62.6989 347.029 65.0381 345.647 67.45C342.124 73.5943 338.332 80.2102 334.207 87.2425ZM415.605 30.9399H437.515L416.236 61.5442L416.146 61.6729V61.8296V87.2425H398.018V61.9931V61.837L397.929 61.7087L376.646 30.9399H398.644L402.882 37.1463L399.72 41.8903L396.051 36.5334L395.902 36.316H395.638H387.872H386.918L387.461 37.1007L403.476 60.2238V81.3665V81.8665H403.976H410.516H411.016V81.3665V60.1038L426.705 37.0977L427.238 36.316H426.292H418.526H418.264L418.115 36.5321L407.078 52.535L404.011 48.1721L415.605 30.9399Z" fill="currentColor"></path>
    <path d="M202.15 74.4904H159.244V69.1144H208.026V87.2425H146.492V30.9399H208.026V49.068H165.12H164.62V49.568V55.9441V56.4441H165.12H196.827V61.8201H159.244V43.692H202.15H202.65V43.192V36.816V36.316H202.15H152.368H151.868V36.816V81.3665V81.8665H152.368H202.15H202.65V81.3665V74.9904V74.4904H202.15ZM262.998 58.8054L263.876 59.8194V58.4781V30.9399H282.004V87.2425H263.605L233.222 52.0795V43.8005L265.941 81.6932L266.09 81.8665H266.319H276.128H276.628V81.3665V36.816V36.316H276.128H269.752H269.252V36.816V74.3024L236.534 36.4888L236.384 36.316H236.156H226.346H225.846V36.816V81.3665V81.8665H226.346H232.722H233.222V81.3665V63.4152L238.598 69.6184V87.2425H220.47V30.9399H238.87L262.998 58.8054ZM334.207 87.2425H328.01C328.643 86.1492 329.848 84.0426 331.421 81.2924C334.342 76.1835 338.534 68.8535 342.692 61.6714L342.693 61.6695C346.862 54.3945 351.602 46.1401 356.914 37.0686L357.355 36.316H356.483H349.126H348.839L348.694 36.564C341.426 49.0227 336.315 57.9422 330.634 67.8556C328.386 71.7773 326.05 75.8546 323.455 80.368C321.736 77.4134 315.282 66.3214 308.891 55.3149C305.233 49.0156 301.595 42.7446 298.877 38.0435C297.519 35.6929 296.39 33.7352 295.604 32.3629C295.267 31.7759 294.994 31.2967 294.792 30.9399H315.732L326.559 49.569L323.457 54.9463L312.773 36.5647L312.629 36.316H312.341H304.984H304.082L304.56 37.081C305.371 38.3791 309.594 45.6825 313.819 52.9959L314.852 54.7841C318.702 61.4505 322.315 67.7055 323.032 68.8757L323.471 69.5927L323.891 68.8641L339.913 41.0711L339.914 41.0706L345.737 30.9399H366.643C364.553 34.5108 357.368 47.0299 350.295 59.3533L349.673 60.4357C348.37 62.6989 347.029 65.0381 345.647 67.45C342.124 73.5943 338.332 80.2102 334.207 87.2425ZM415.605 30.9399H437.515L416.236 61.5442L416.146 61.6729V61.8296V87.2425H398.018V61.9931V61.837L397.929 61.7087L376.646 30.9399H398.644L402.882 37.1463L399.72 41.8903L396.051 36.5334L395.902 36.316H395.638H387.872H386.918L387.461 37.1007L403.476 60.2238V81.3665V81.8665H403.976H410.516H411.016V81.3665V60.1038L426.705 37.0977L427.238 36.316H426.292H418.526H418.264L418.115 36.5321L407.078 52.535L404.011 48.1721L415.605 30.9399Z" stroke="white"></path>
    <path d="M202.15 74.4904H159.244V69.1144H208.026V87.2425H146.492V30.9399H208.026V49.068H165.12H164.62V49.568V55.9441V56.4441H165.12H196.827V61.8201H159.244V43.692H202.15H202.65V43.192V36.816V36.316H202.15H152.368H151.868V36.816V81.3665V81.8665H152.368H202.15H202.65V81.3665V74.9904V74.4904H202.15ZM262.998 58.8054L263.876 59.8194V58.4781V30.9399H282.004V87.2425H263.605L233.222 52.0795V43.8005L265.941 81.6932L266.09 81.8665H266.319H276.128H276.628V81.3665V36.816V36.316H276.128H269.752H269.252V36.816V74.3024L236.534 36.4888L236.384 36.316H236.156H226.346H225.846V36.816V81.3665V81.8665H226.346H232.722H233.222V81.3665V63.4152L238.598 69.6184V87.2425H220.47V30.9399H238.87L262.998 58.8054ZM334.207 87.2425H328.01C328.643 86.1492 329.848 84.0426 331.421 81.2924C334.342 76.1835 338.534 68.8535 342.692 61.6714L342.693 61.6695C346.862 54.3945 351.602 46.1401 356.914 37.0686L357.355 36.316H356.483H349.126H348.839L348.694 36.564C341.426 49.0227 336.315 57.9422 330.634 67.8556C328.386 71.7773 326.05 75.8546 323.455 80.368C321.736 77.4134 315.282 66.3214 308.891 55.3149C305.233 49.0156 301.595 42.7446 298.877 38.0435C297.519 35.6929 296.39 33.7352 295.604 32.3629C295.267 31.7759 294.994 31.2967 294.792 30.9399H315.732L326.559 49.569L323.457 54.9463L312.773 36.5647L312.629 36.316H312.341H304.984H304.082L304.56 37.081C305.371 38.3791 309.594 45.6825 313.819 52.9959L314.852 54.7841C318.702 61.4505 322.315 67.7055 323.032 68.8757L323.471 69.5927L323.891 68.8641L339.913 41.0711L339.914 41.0706L345.737 30.9399H366.643C364.553 34.5108 357.368 47.0299 350.295 59.3533L349.673 60.4357C348.37 62.6989 347.029 65.0381 345.647 67.45C342.124 73.5943 338.332 80.2102 334.207 87.2425ZM415.605 30.9399H437.515L416.236 61.5442L416.146 61.6729V61.8296V87.2425H398.018V61.9931V61.837L397.929 61.7087L376.646 30.9399H398.644L402.882 37.1463L399.72 41.8903L396.051 36.5334L395.902 36.316H395.638H387.872H386.918L387.461 37.1007L403.476 60.2238V81.3665V81.8665H403.976H410.516H411.016V81.3665V60.1038L426.705 37.0977L427.238 36.316H426.292H418.526H418.264L418.115 36.5321L407.078 52.535L404.011 48.1721L415.605 30.9399Z" stroke="white"></path>
  </symbol>
  <symbol fill="none" xmlns="http://www.w3.org/2000/svg" viewBox="0 0 123 25" id="dot">
    <path d="M8.52864 16.8835C8.52864 17.1754 8.29201 17.4121 8.0001 17.4121C7.70819 17.4121 7.47156 17.1754 7.47156 16.8835C7.47156 16.5916 7.70819 16.355 8.0001 16.355C8.29201 16.355 8.52864 16.5916 8.52864 16.8835Z" stroke="currentColor" stroke-width="0.75"></path>
    <path d="M5.79283 14.6394L5.79278 14.6394C5.61496 14.4551 5.41695 14.3027 5.2056 14.1819C5.31881 14.3973 5.46417 14.6006 5.64195 14.7848L5.79283 14.6394ZM5.79283 14.6394C5.97067 14.8236 6.11607 15.0269 6.2293 15.2423M5.79283 14.6394L6.2293 15.2423M6.2293 15.2423C6.01793 15.1216 5.81988 14.9691 5.64201 14.7849L6.2293 15.2423Z" stroke="currentColor" stroke-width="0.75"></path>
    <path d="M5.78503 19.3581L5.78502 19.3581C5.60081 19.5359 5.39761 19.6812 5.18226 19.7945C5.30304 19.5832 5.4555 19.3853 5.63963 19.2074C5.82379 19.0298 6.02696 18.8845 6.24226 18.7712C6.12152 18.9825 5.96911 19.1804 5.78503 19.3581Z" stroke="currentColor" stroke-width="0.75"></path>
    <path d="M10.2073 19.3606L10.2074 19.3607C10.3851 19.5448 10.583 19.6973 10.7943 19.818C10.681 19.6027 10.5358 19.3995 10.3582 19.2154L10.2073 19.3606ZM10.2073 19.3606C10.0294 19.1765 9.88398 18.9732 9.77072 18.7578M10.2073 19.3606L9.77072 18.7578M9.77072 18.7578C9.98207 18.8785 10.1801 19.031 10.3581 19.2153L9.77072 18.7578Z" stroke="currentColor" stroke-width="0.75"></path>
    <path d="M10.2156 14.6419L10.2158 14.6418C10.3999 14.464 10.6031 14.3185 10.8185 14.2053C10.6977 14.4166 10.5452 14.6146 10.3609 14.7924L10.3607 14.7926C10.1766 14.9704 9.97347 15.1157 9.75808 15.2289C9.87883 15.0177 10.0313 14.8197 10.2156 14.6419Z" stroke="currentColor" stroke-width="0.75"></path>
    <path d="M8.02211 14.0843C8.01242 14.0849 8.00503 14.0852 8.00016 14.0854C7.9953 14.0852 7.98791 14.0849 7.97822 14.0843C7.95572 14.0829 7.92109 14.0802 7.87719 14.0751C7.78881 14.0646 7.66596 14.0445 7.53031 14.0061C7.25173 13.9273 6.96127 13.7837 6.77684 13.5335C6.60379 13.2986 6.47782 12.9064 6.64817 12.2227C6.80324 11.6004 7.20016 10.7586 8.00015 9.63445C8.80015 10.7586 9.19707 11.6005 9.35214 12.2228C9.5225 12.9065 9.39652 13.2987 9.22348 13.5335C9.03905 13.7838 8.74859 13.9273 8.47001 14.0062C8.33437 14.0445 8.21152 14.0647 8.12314 14.0751C8.07923 14.0802 8.04461 14.0829 8.02211 14.0843Z" stroke="currentColor" stroke-width="0.75"></path>
    <path d="M8.00683 19.9145L8.00667 19.9145L8.00683 19.9145ZM8.00015 19.9147C8.00502 19.9149 8.01241 19.9153 8.02209 19.9158C8.04459 19.9172 8.07921 19.9199 8.12311 19.9251C8.21149 19.9355 8.33433 19.9556 8.46997 19.994C8.74853 20.0728 9.03898 20.2164 9.2234 20.4666C9.39643 20.7014 9.5224 21.0936 9.35205 21.7773C9.19699 22.3996 8.8001 23.2414 8.00015 24.3655C7.20016 23.2414 6.80324 22.3996 6.64817 21.7773C6.47782 21.0936 6.60379 20.7014 6.77684 20.4666C6.96126 20.2164 7.25173 20.0728 7.53031 19.994C7.66595 19.9556 7.78881 19.9355 7.87719 19.9251C7.92109 19.9199 7.95572 19.9172 7.97822 19.9158C7.9879 19.9153 7.99529 19.9149 8.00015 19.9147Z" stroke="currentColor" stroke-width="0.75"></path>
    <path d="M5.08427 16.9781C5.08486 16.9878 5.0852 16.9952 5.08539 17C5.0852 17.0049 5.08486 17.0123 5.08427 17.022C5.0829 17.0445 5.08022 17.0791 5.07505 17.123C5.06465 17.2114 5.04451 17.3342 5.00613 17.4699C4.92729 17.7485 4.78374 18.0389 4.53346 18.2234C4.29863 18.3964 3.90641 18.5224 3.22272 18.352C2.60039 18.1969 1.75859 17.8 0.634447 17C1.75859 16.2 2.60039 15.8031 3.22272 15.6481C3.90641 15.4777 4.29863 15.6037 4.53346 15.7767C4.78374 15.9611 4.92729 16.2516 5.00613 16.5302C5.04451 16.6658 5.06465 16.7887 5.07505 16.8771C5.08022 16.921 5.0829 16.9556 5.08427 16.9781Z" stroke="currentColor" stroke-width="0.75"></path>
    <path d="M10.9146 16.9934L10.9146 16.9935L10.9146 16.9934ZM10.9148 17C10.915 16.9952 10.9154 16.9878 10.916 16.9781C10.9173 16.9556 10.92 16.921 10.9252 16.8771C10.9356 16.7887 10.9557 16.6658 10.9941 16.5302C11.0729 16.2516 11.2165 15.9611 11.4668 15.7767C11.7016 15.6037 12.0938 15.4777 12.7775 15.6481C13.3998 15.8031 14.2416 16.2 15.3658 17C14.2416 17.8001 13.3998 18.197 12.7775 18.3521C12.0938 18.5225 11.7016 18.3965 11.4668 18.2234C11.2165 18.039 11.0729 17.7485 10.9941 17.4699C10.9557 17.3343 10.9356 17.2114 10.9252 17.123C10.92 17.0791 10.9173 17.0445 10.916 17.022C10.9154 17.0123 10.915 17.0049 10.9148 17Z" stroke="currentColor" stroke-width="0.75"></path>
    <path d="M50.501 19.0615H31.9387V17.0298H52.9077V24.625H26.3752V0.375H52.9077V7.97022H34.3455H33.9705V8.34522V11.127V11.502H34.3455H48.0218V13.5337H31.9387V5.93848H50.501H50.876V5.56348V2.78174V2.40674H50.501H28.782H28.407V2.78174V22.2183V22.5933H28.782H50.501H50.876V22.2183V19.4365V19.0615H50.501ZM76.9293 12.478L77.5878 13.2385V12.2325V0.375H85.183V24.625H77.3844L64.214 9.38254V6.25062L78.2128 22.4633L78.325 22.5933H78.4967H82.7763H83.1513V22.2183V2.78174V2.40674H82.7763H79.9945H79.6195V2.78174V18.7153L65.6205 2.53637L65.5083 2.40674H65.3369H61.0573H60.6823V2.78174V22.2183V22.5933H61.0573H63.839H64.214V22.2183V14.807L66.2458 17.1513V24.625H58.6506V0.375H66.4494L76.9293 12.478ZM108.025 24.625H105.683C105.981 24.108 106.452 23.2843 107.04 22.2554C108.316 20.0252 110.142 16.8308 111.952 13.7043L111.953 13.7029C113.772 10.529 115.84 6.92827 118.157 2.97124L118.487 2.40674H117.833H114.624H114.408L114.3 2.59279C111.129 8.02862 108.898 11.9207 106.42 16.2458C105.478 17.8884 104.501 19.5935 103.423 21.4694C102.511 19.9019 99.8461 15.3211 97.2054 10.7737C95.6095 8.02545 94.0226 5.28966 92.837 3.23878C92.2442 2.21328 91.7519 1.3594 91.409 0.760951C91.3265 0.616977 91.2527 0.487957 91.1884 0.375H99.9642L104.597 8.34591L103.424 10.3786L98.8993 2.59331L98.7909 2.40674H98.5751H95.3654H94.6888L95.0474 2.98049C95.3995 3.54379 97.2397 6.72616 99.084 9.9192L99.5386 10.7062C101.216 13.6108 102.792 16.3385 103.106 16.8507L103.435 17.3885L103.75 16.8421L110.74 4.71653L110.74 4.71612L113.236 0.375H121.993C120.934 2.19386 117.946 7.39872 115.004 12.5256L114.727 13.0083C114.158 13.9964 113.572 15.0174 112.969 16.0701C111.445 18.7277 109.806 21.5868 108.025 24.625Z" stroke="currentColor" stroke-width="0.75"></path>
  </symbol>
</svg>