<svg width="123" height="25" viewBox="0 0 123 25" fill="none" xmlns="http://www.w3.org/2000/svg">
<path d="M8.52864 16.8835C8.52864 17.1754 8.29201 17.4121 8.0001 17.4121C7.70819 17.4121 7.47156 17.1754 7.47156 16.8835C7.47156 16.5916 7.70819 16.355 8.0001 16.355C8.29201 16.355 8.52864 16.5916 8.52864 16.8835Z" stroke="#097118" stroke-width="0.75"/>
<path d="M5.79283 14.6394L5.79278 14.6394C5.61496 14.4551 5.41695 14.3027 5.2056 14.1819C5.31881 14.3973 5.46417 14.6006 5.64195 14.7848L5.79283 14.6394ZM5.79283 14.6394C5.97067 14.8236 6.11607 15.0269 6.2293 15.2423M5.79283 14.6394L6.2293 15.2423M6.2293 15.2423C6.01793 15.1216 5.81988 14.9691 5.64201 14.7849L6.2293 15.2423Z" stroke="#097118" stroke-width="0.75"/>
<path d="M5.78503 19.3581L5.78502 19.3581C5.60081 19.5359 5.39761 19.6812 5.18226 19.7945C5.30304 19.5832 5.4555 19.3853 5.63963 19.2074C5.82379 19.0298 6.02696 18.8845 6.24226 18.7712C6.12152 18.9825 5.96911 19.1804 5.78503 19.3581Z" stroke="#097118" stroke-width="0.75"/>
<path d="M10.2073 19.3606L10.2074 19.3607C10.3851 19.5448 10.583 19.6973 10.7943 19.818C10.681 19.6027 10.5358 19.3995 10.3582 19.2154L10.2073 19.3606ZM10.2073 19.3606C10.0294 19.1765 9.88398 18.9732 9.77072 18.7578M10.2073 19.3606L9.77072 18.7578M9.77072 18.7578C9.98207 18.8785 10.1801 19.031 10.3581 19.2153L9.77072 18.7578Z" stroke="#097118" stroke-width="0.75"/>
<path d="M10.2156 14.6419L10.2158 14.6418C10.3999 14.464 10.6031 14.3185 10.8185 14.2053C10.6977 14.4166 10.5452 14.6146 10.3609 14.7924L10.3607 14.7926C10.1766 14.9704 9.97347 15.1157 9.75808 15.2289C9.87883 15.0177 10.0313 14.8197 10.2156 14.6419Z" stroke="#097118" stroke-width="0.75"/>
<path d="M8.02211 14.0843C8.01242 14.0849 8.00503 14.0852 8.00016 14.0854C7.9953 14.0852 7.98791 14.0849 7.97822 14.0843C7.95572 14.0829 7.92109 14.0802 7.87719 14.0751C7.78881 14.0646 7.66596 14.0445 7.53031 14.0061C7.25173 13.9273 6.96127 13.7837 6.77684 13.5335C6.60379 13.2986 6.47782 12.9064 6.64817 12.2227C6.80324 11.6004 7.20016 10.7586 8.00015 9.63445C8.80015 10.7586 9.19707 11.6005 9.35214 12.2228C9.5225 12.9065 9.39652 13.2987 9.22348 13.5335C9.03905 13.7838 8.74859 13.9273 8.47001 14.0062C8.33437 14.0445 8.21152 14.0647 8.12314 14.0751C8.07923 14.0802 8.04461 14.0829 8.02211 14.0843Z" stroke="#097118" stroke-width="0.75"/>
<path d="M8.00683 19.9145L8.00667 19.9145L8.00683 19.9145ZM8.00015 19.9147C8.00502 19.9149 8.01241 19.9153 8.02209 19.9158C8.04459 19.9172 8.07921 19.9199 8.12311 19.9251C8.21149 19.9355 8.33433 19.9556 8.46997 19.994C8.74853 20.0728 9.03898 20.2164 9.2234 20.4666C9.39643 20.7014 9.5224 21.0936 9.35205 21.7773C9.19699 22.3996 8.8001 23.2414 8.00015 24.3655C7.20016 23.2414 6.80324 22.3996 6.64817 21.7773C6.47782 21.0936 6.60379 20.7014 6.77684 20.4666C6.96126 20.2164 7.25173 20.0728 7.53031 19.994C7.66595 19.9556 7.78881 19.9355 7.87719 19.9251C7.92109 19.9199 7.95572 19.9172 7.97822 19.9158C7.9879 19.9153 7.99529 19.9149 8.00015 19.9147Z" stroke="#097118" stroke-width="0.75"/>
<path d="M5.08427 16.9781C5.08486 16.9878 5.0852 16.9952 5.08539 17C5.0852 17.0049 5.08486 17.0123 5.08427 17.022C5.0829 17.0445 5.08022 17.0791 5.07505 17.123C5.06465 17.2114 5.04451 17.3342 5.00613 17.4699C4.92729 17.7485 4.78374 18.0389 4.53346 18.2234C4.29863 18.3964 3.90641 18.5224 3.22272 18.352C2.60039 18.1969 1.75859 17.8 0.634447 17C1.75859 16.2 2.60039 15.8031 3.22272 15.6481C3.90641 15.4777 4.29863 15.6037 4.53346 15.7767C4.78374 15.9611 4.92729 16.2516 5.00613 16.5302C5.04451 16.6658 5.06465 16.7887 5.07505 16.8771C5.08022 16.921 5.0829 16.9556 5.08427 16.9781Z" stroke="#097118" stroke-width="0.75"/>
<path d="M10.9146 16.9934L10.9146 16.9935L10.9146 16.9934ZM10.9148 17C10.915 16.9952 10.9154 16.9878 10.916 16.9781C10.9173 16.9556 10.92 16.921 10.9252 16.8771C10.9356 16.7887 10.9557 16.6658 10.9941 16.5302C11.0729 16.2516 11.2165 15.9611 11.4668 15.7767C11.7016 15.6037 12.0938 15.4777 12.7775 15.6481C13.3998 15.8031 14.2416 16.2 15.3658 17C14.2416 17.8001 13.3998 18.197 12.7775 18.3521C12.0938 18.5225 11.7016 18.3965 11.4668 18.2234C11.2165 18.039 11.0729 17.7485 10.9941 17.4699C10.9557 17.3343 10.9356 17.2114 10.9252 17.123C10.92 17.0791 10.9173 17.0445 10.916 17.022C10.9154 17.0123 10.915 17.0049 10.9148 17Z" stroke="#097118" stroke-width="0.75"/>
<path d="M50.501 19.0615H31.9387V17.0298H52.9077V24.625H26.3752V0.375H52.9077V7.97022H34.3455H33.9705V8.34522V11.127V11.502H34.3455H48.0218V13.5337H31.9387V5.93848H50.501H50.876V5.56348V2.78174V2.40674H50.501H28.782H28.407V2.78174V22.2183V22.5933H28.782H50.501H50.876V22.2183V19.4365V19.0615H50.501ZM76.9293 12.478L77.5878 13.2385V12.2325V0.375H85.183V24.625H77.3844L64.214 9.38254V6.25062L78.2128 22.4633L78.325 22.5933H78.4967H82.7763H83.1513V22.2183V2.78174V2.40674H82.7763H79.9945H79.6195V2.78174V18.7153L65.6205 2.53637L65.5083 2.40674H65.3369H61.0573H60.6823V2.78174V22.2183V22.5933H61.0573H63.839H64.214V22.2183V14.807L66.2458 17.1513V24.625H58.6506V0.375H66.4494L76.9293 12.478ZM108.025 24.625H105.683C105.981 24.108 106.452 23.2843 107.04 22.2554C108.316 20.0252 110.142 16.8308 111.952 13.7043L111.953 13.7029C113.772 10.529 115.84 6.92827 118.157 2.97124L118.487 2.40674H117.833H114.624H114.408L114.3 2.59279C111.129 8.02862 108.898 11.9207 106.42 16.2458C105.478 17.8884 104.501 19.5935 103.423 21.4694C102.511 19.9019 99.8461 15.3211 97.2054 10.7737C95.6095 8.02545 94.0226 5.28966 92.837 3.23878C92.2442 2.21328 91.7519 1.3594 91.409 0.760951C91.3265 0.616977 91.2527 0.487957 91.1884 0.375H99.9642L104.597 8.34591L103.424 10.3786L98.8993 2.59331L98.7909 2.40674H98.5751H95.3654H94.6888L95.0474 2.98049C95.3995 3.54379 97.2397 6.72616 99.084 9.9192L99.5386 10.7062C101.216 13.6108 102.792 16.3385 103.106 16.8507L103.435 17.3885L103.75 16.8421L110.74 4.71653L110.74 4.71612L113.236 0.375H121.993C120.934 2.19386 117.946 7.39872 115.004 12.5256L114.727 13.0083C114.158 13.9964 113.572 15.0174 112.969 16.0701C111.445 18.7277 109.806 21.5868 108.025 24.625Z" stroke="#097118" stroke-width="0.75"/>
</svg>
