<svg width="439" height="118" viewBox="0 0 439 118" fill="none" xmlns="http://www.w3.org/2000/svg">
    <path d="M64.1026 58.2394C64.1026 61.3359 61.5924 63.8461 58.496 63.8461C55.3995 63.8461 52.8894 61.3359 52.8894 58.2394C52.8894 55.143 55.3995 52.6328 58.496 52.6328C61.5924 52.6328 64.1026 55.143 64.1026 58.2394Z" fill="currentColor"/>
    <path d="M64.1026 58.2394C64.1026 61.3359 61.5924 63.8461 58.496 63.8461C55.3995 63.8461 52.8894 61.3359 52.8894 58.2394C52.8894 55.143 55.3995 52.6328 58.496 52.6328C61.5924 52.6328 64.1026 55.143 64.1026 58.2394Z" stroke="white" stroke-width="2"/>
    <path d="M64.1026 58.2394C64.1026 61.3359 61.5924 63.8461 58.496 63.8461C55.3995 63.8461 52.8894 61.3359 52.8894 58.2394C52.8894 55.143 55.3995 52.6328 58.496 52.6328C61.5924 52.6328 64.1026 55.143 64.1026 58.2394Z" stroke="white" stroke-width="2"/>
    <path d="M43.6098 40.6211L43.6096 40.6209C41.1088 38.0297 38.1035 36.2249 34.8976 35.2065C35.8012 38.445 37.4995 41.5131 40.0003 44.1042L43.6098 40.6211ZM43.6098 40.6211C46.1108 43.2112 47.8092 46.2784 48.7127 49.5179M43.6098 40.6211L48.7127 49.5179M48.7127 49.5179C45.507 48.5002 42.5015 46.6946 40.0004 44.1044L48.7127 49.5179Z" fill="currentColor"/>
    <path d="M43.6098 40.6211L43.6096 40.6209C41.1088 38.0297 38.1035 36.2249 34.8976 35.2065C35.8012 38.445 37.4995 41.5131 40.0003 44.1042L43.6098 40.6211ZM43.6098 40.6211C46.1108 43.2112 47.8092 46.2784 48.7127 49.5179M43.6098 40.6211L48.7127 49.5179M48.7127 49.5179C45.507 48.5002 42.5015 46.6946 40.0004 44.1044L48.7127 49.5179Z" stroke="white" stroke-width="2"/>
    <path d="M43.6098 40.6211L43.6096 40.6209C41.1088 38.0297 38.1035 36.2249 34.8976 35.2065C35.8012 38.445 37.4995 41.5131 40.0003 44.1042L43.6098 40.6211ZM43.6098 40.6211C46.1108 43.2112 47.8092 46.2784 48.7127 49.5179M43.6098 40.6211L48.7127 49.5179M48.7127 49.5179C45.507 48.5002 42.5015 46.6946 40.0004 44.1044L48.7127 49.5179Z" stroke="white" stroke-width="2"/>
    <path d="M43.5089 77.5854L43.5089 77.5854C46.0988 75.0858 47.9044 72.0798 48.9222 68.874C45.6839 69.7787 42.6167 71.4779 40.0254 73.9777L43.5089 77.5854ZM43.5089 77.5854C40.9167 80.0873 37.8495 81.7849 34.6109 82.6901M43.5089 77.5854L34.6109 82.6901M34.6109 82.6901C35.6288 79.4851 37.4353 76.48 40.0252 73.9779L34.6109 82.6901Z" fill="currentColor"/>
    <path d="M43.5089 77.5854L43.5089 77.5854C46.0988 75.0858 47.9044 72.0798 48.9222 68.874C45.6839 69.7787 42.6167 71.4779 40.0254 73.9777L43.5089 77.5854ZM43.5089 77.5854C40.9167 80.0873 37.8495 81.7849 34.6109 82.6901M43.5089 77.5854L34.6109 82.6901M34.6109 82.6901C35.6288 79.4851 37.4353 76.48 40.0252 73.9779L34.6109 82.6901Z" stroke="white" stroke-width="2"/>
    <path d="M43.5089 77.5854L43.5089 77.5854C46.0988 75.0858 47.9044 72.0798 48.9222 68.874C45.6839 69.7787 42.6167 71.4779 40.0254 73.9777L43.5089 77.5854ZM43.5089 77.5854C40.9167 80.0873 37.8495 81.7849 34.6109 82.6901M43.5089 77.5854L34.6109 82.6901M34.6109 82.6901C35.6288 79.4851 37.4353 76.48 40.0252 73.9779L34.6109 82.6901Z" stroke="white" stroke-width="2"/>
    <path d="M73.3821 77.5616L73.3824 77.562C75.8831 80.153 78.8891 81.9587 82.0938 82.9765C81.1891 79.738 79.4901 76.67 76.9917 74.0801L73.3821 77.5616ZM73.3821 77.5616C70.881 74.9726 69.1816 71.9054 68.2778 68.6658M73.3821 77.5616L68.2778 68.6658M68.2778 68.6658C71.4834 69.6825 74.489 71.4883 76.9914 74.0797L68.2778 68.6658Z" fill="currentColor"/>
    <path d="M73.3821 77.5616L73.3824 77.562C75.8831 80.153 78.8891 81.9587 82.0938 82.9765C81.1891 79.738 79.4901 76.67 76.9917 74.0801L73.3821 77.5616ZM73.3821 77.5616C70.881 74.9726 69.1816 71.9054 68.2778 68.6658M73.3821 77.5616L68.2778 68.6658M68.2778 68.6658C71.4834 69.6825 74.489 71.4883 76.9914 74.0797L68.2778 68.6658Z" stroke="white" stroke-width="2"/>
    <path d="M73.3821 77.5616L73.3824 77.562C75.8831 80.153 78.8891 81.9587 82.0938 82.9765C81.1891 79.738 79.4901 76.67 76.9917 74.0801L73.3821 77.5616ZM73.3821 77.5616C70.881 74.9726 69.1816 71.9054 68.2778 68.6658M73.3821 77.5616L68.2778 68.6658M68.2778 68.6658C71.4834 69.6825 74.489 71.4883 76.9914 74.0797L68.2778 68.6658Z" stroke="white" stroke-width="2"/>
    <path d="M73.4858 40.5975L73.4863 40.597C76.0753 38.0961 79.1434 36.3967 82.3821 35.4938C81.3653 38.6985 79.5594 41.7039 76.9668 44.205L76.9663 44.2054C74.3766 46.7071 71.3097 48.4037 68.0708 49.3086C69.0876 46.1034 70.8935 43.0984 73.4858 40.5975Z" fill="currentColor"/>
    <path d="M73.4858 40.5975L73.4863 40.597C76.0753 38.0961 79.1434 36.3967 82.3821 35.4938C81.3653 38.6985 79.5594 41.7039 76.9668 44.205L76.9663 44.2054C74.3766 46.7071 71.3097 48.4037 68.0708 49.3086C69.0876 46.1034 70.8935 43.0984 73.4858 40.5975Z" stroke="white" stroke-width="2"/>
    <path d="M73.4858 40.5975L73.4863 40.597C76.0753 38.0961 79.1434 36.3967 82.3821 35.4938C81.3653 38.6985 79.5594 41.7039 76.9668 44.205L76.9663 44.2054C74.3766 46.7071 71.3097 48.4037 68.0708 49.3086C69.0876 46.1034 70.8935 43.0984 73.4858 40.5975Z" stroke="white" stroke-width="2"/>
    <path d="M58.544 39.521C58.5228 39.5218 58.5067 39.5223 58.496 39.5226C58.4854 39.5223 58.4693 39.5218 58.4481 39.521C58.4004 39.5193 58.3268 39.5161 58.2299 39.5102C58.0362 39.4984 57.7501 39.4761 57.3932 39.434C56.6778 39.3498 55.686 39.1874 54.5862 38.8762C52.3673 38.2483 49.8215 37.0472 48.1489 34.7773C46.5066 32.5487 45.5802 29.1162 46.9202 23.7388C48.2185 18.528 51.6343 11.5552 58.496 2.26819C65.3576 11.5556 68.7735 18.5286 70.0719 23.7394C71.4118 29.1169 70.4854 32.5493 68.8431 34.7778C67.1705 37.0476 64.6247 38.2486 62.4058 38.8764C61.3061 39.1876 60.3143 39.3499 59.5989 39.4341C59.2419 39.4761 58.9559 39.4984 58.7621 39.5102C58.6653 39.5161 58.5917 39.5193 58.544 39.521Z" fill="currentColor"/>
    <path d="M58.544 39.521C58.5228 39.5218 58.5067 39.5223 58.496 39.5226C58.4854 39.5223 58.4693 39.5218 58.4481 39.521C58.4004 39.5193 58.3268 39.5161 58.2299 39.5102C58.0362 39.4984 57.7501 39.4761 57.3932 39.434C56.6778 39.3498 55.686 39.1874 54.5862 38.8762C52.3673 38.2483 49.8215 37.0472 48.1489 34.7773C46.5066 32.5487 45.5802 29.1162 46.9202 23.7388C48.2185 18.528 51.6343 11.5552 58.496 2.26819C65.3576 11.5556 68.7735 18.5286 70.0719 23.7394C71.4118 29.1169 70.4854 32.5493 68.8431 34.7778C67.1705 37.0476 64.6247 38.2486 62.4058 38.8764C61.3061 39.1876 60.3143 39.3499 59.5989 39.4341C59.2419 39.4761 58.9559 39.4984 58.7621 39.5102C58.6653 39.5161 58.5917 39.5193 58.544 39.521Z" stroke="white" stroke-width="2"/>
    <path d="M58.544 39.521C58.5228 39.5218 58.5067 39.5223 58.496 39.5226C58.4854 39.5223 58.4693 39.5218 58.4481 39.521C58.4004 39.5193 58.3268 39.5161 58.2299 39.5102C58.0362 39.4984 57.7501 39.4761 57.3932 39.434C56.6778 39.3498 55.686 39.1874 54.5862 38.8762C52.3673 38.2483 49.8215 37.0472 48.1489 34.7773C46.5066 32.5487 45.5802 29.1162 46.9202 23.7388C48.2185 18.528 51.6343 11.5552 58.496 2.26819C65.3576 11.5556 68.7735 18.5286 70.0719 23.7394C71.4118 29.1169 70.4854 32.5493 68.8431 34.7778C67.1705 37.0476 64.6247 38.2486 62.4058 38.8764C61.3061 39.1876 60.3143 39.3499 59.5989 39.4341C59.2419 39.4761 58.9559 39.4984 58.7621 39.5102C58.6653 39.5161 58.5917 39.5193 58.544 39.521Z" stroke="white" stroke-width="2"/>
    <path d="M58.4481 78.6624C58.4692 78.6616 58.4853 78.6612 58.496 78.6609C58.5067 78.6612 58.5228 78.6616 58.5439 78.6624C58.5916 78.6642 58.6652 78.6674 58.7621 78.6733C58.9558 78.6851 59.2419 78.7074 59.5988 78.7494C60.3141 78.8336 61.3059 78.996 62.4056 79.3072C64.6244 79.9351 67.17 81.1362 68.8426 83.406C70.4848 85.6345 71.4111 89.0669 70.0713 94.4441C68.7729 99.6546 65.3573 106.627 58.496 115.914C51.6343 106.627 48.2185 99.6546 46.9201 94.4441C45.5802 89.0669 46.5066 85.6345 48.1489 83.406C49.8215 81.1362 52.3673 79.9351 54.5862 79.3072C55.686 78.996 56.6778 78.8336 57.3932 78.7494C57.7501 78.7074 58.0362 78.6851 58.2299 78.6733C58.3268 78.6674 58.4004 78.6642 58.4481 78.6624Z" fill="currentColor"/>
    <path d="M58.4481 78.6624C58.4692 78.6616 58.4853 78.6612 58.496 78.6609C58.5067 78.6612 58.5228 78.6616 58.5439 78.6624C58.5916 78.6642 58.6652 78.6674 58.7621 78.6733C58.9558 78.6851 59.2419 78.7074 59.5988 78.7494C60.3141 78.8336 61.3059 78.996 62.4056 79.3072C64.6244 79.9351 67.17 81.1362 68.8426 83.406C70.4848 85.6345 71.4111 89.0669 70.0713 94.4441C68.7729 99.6546 65.3573 106.627 58.496 115.914C51.6343 106.627 48.2185 99.6546 46.9201 94.4441C45.5802 89.0669 46.5066 85.6345 48.1489 83.406C49.8215 81.1362 52.3673 79.9351 54.5862 79.3072C55.686 78.996 56.6778 78.8336 57.3932 78.7494C57.7501 78.7074 58.0362 78.6851 58.2299 78.6733C58.3268 78.6674 58.4004 78.6642 58.4481 78.6624Z" stroke="white" stroke-width="2"/>
    <path d="M58.4481 78.6624C58.4692 78.6616 58.4853 78.6612 58.496 78.6609C58.5067 78.6612 58.5228 78.6616 58.5439 78.6624C58.5916 78.6642 58.6652 78.6674 58.7621 78.6733C58.9558 78.6851 59.2419 78.7074 59.5988 78.7494C60.3141 78.8336 61.3059 78.996 62.4056 79.3072C64.6244 79.9351 67.17 81.1362 68.8426 83.406C70.4848 85.6345 71.4111 89.0669 70.0713 94.4441C68.7729 99.6546 65.3573 106.627 58.496 115.914C51.6343 106.627 48.2185 99.6546 46.9201 94.4441C45.5802 89.0669 46.5066 85.6345 48.1489 83.406C49.8215 81.1362 52.3673 79.9351 54.5862 79.3072C55.686 78.996 56.6778 78.8336 57.3932 78.7494C57.7501 78.7074 58.0362 78.6851 58.2299 78.6733C58.3268 78.6674 58.4004 78.6642 58.4481 78.6624Z" stroke="white" stroke-width="2"/>
    <path d="M38.9253 59.0439C38.9261 59.0651 38.9266 59.0812 38.9269 59.0919C38.9268 59.0946 38.9267 59.0977 38.9266 59.1012C38.9263 59.1112 38.9259 59.1241 38.9253 59.1398C38.9236 59.1875 38.9204 59.2611 38.9145 59.358C38.9027 59.5517 38.8804 59.8378 38.8383 60.1947C38.7541 60.9101 38.5917 61.9019 38.2805 63.0017C37.6526 65.2206 36.4515 67.7664 34.1816 69.439C31.953 71.0813 28.5205 72.0077 23.1431 70.6677C17.9323 69.3694 10.9595 65.9535 1.67246 59.0919C10.9595 52.2302 17.9323 48.8144 23.1431 47.516C28.5205 46.1761 31.953 47.1025 34.1816 48.7448C36.4515 50.4174 37.6526 52.9632 38.2805 55.1821C38.5917 56.2819 38.7541 57.2737 38.8383 57.9891C38.8804 58.346 38.9027 58.6321 38.9145 58.8258C38.9204 58.9226 38.9236 58.9962 38.9253 59.0439Z" fill="currentColor"/>
    <path d="M38.9253 59.0439C38.9261 59.0651 38.9266 59.0812 38.9269 59.0919C38.9268 59.0946 38.9267 59.0977 38.9266 59.1012C38.9263 59.1112 38.9259 59.1241 38.9253 59.1398C38.9236 59.1875 38.9204 59.2611 38.9145 59.358C38.9027 59.5517 38.8804 59.8378 38.8383 60.1947C38.7541 60.9101 38.5917 61.9019 38.2805 63.0017C37.6526 65.2206 36.4515 67.7664 34.1816 69.439C31.953 71.0813 28.5205 72.0077 23.1431 70.6677C17.9323 69.3694 10.9595 65.9535 1.67246 59.0919C10.9595 52.2302 17.9323 48.8144 23.1431 47.516C28.5205 46.1761 31.953 47.1025 34.1816 48.7448C36.4515 50.4174 37.6526 52.9632 38.2805 55.1821C38.5917 56.2819 38.7541 57.2737 38.8383 57.9891C38.8804 58.346 38.9027 58.6321 38.9145 58.8258C38.9204 58.9226 38.9236 58.9962 38.9253 59.0439Z" stroke="white" stroke-width="2"/>
    <path d="M38.9253 59.0439C38.9261 59.0651 38.9266 59.0812 38.9269 59.0919C38.9268 59.0946 38.9267 59.0977 38.9266 59.1012C38.9263 59.1112 38.9259 59.1241 38.9253 59.1398C38.9236 59.1875 38.9204 59.2611 38.9145 59.358C38.9027 59.5517 38.8804 59.8378 38.8383 60.1947C38.7541 60.9101 38.5917 61.9019 38.2805 63.0017C37.6526 65.2206 36.4515 67.7664 34.1816 69.439C31.953 71.0813 28.5205 72.0077 23.1431 70.6677C17.9323 69.3694 10.9595 65.9535 1.67246 59.0919C10.9595 52.2302 17.9323 48.8144 23.1431 47.516C28.5205 46.1761 31.953 47.1025 34.1816 48.7448C36.4515 50.4174 37.6526 52.9632 38.2805 55.1821C38.5917 56.2819 38.7541 57.2737 38.8383 57.9891C38.8804 58.346 38.9027 58.6321 38.9145 58.8258C38.9204 58.9226 38.9236 58.9962 38.9253 59.0439Z" stroke="white" stroke-width="2"/>
    <path d="M78.0667 59.1398C78.0659 59.1187 78.0654 59.1026 78.0651 59.0919C78.0654 59.0812 78.0659 59.0651 78.0667 59.0439C78.0684 58.9962 78.0716 58.9226 78.0775 58.8258C78.0893 58.6321 78.1116 58.346 78.1537 57.9891C78.2379 57.2737 78.4003 56.2819 78.7115 55.1821C79.3394 52.9632 80.5405 50.4174 82.8104 48.7448C85.039 47.1025 88.4715 46.1761 93.8489 47.516C99.0597 48.8144 106.032 52.2302 115.32 59.0919C106.032 65.9539 99.0596 69.3699 93.8489 70.6683C88.4715 72.0083 85.039 71.0819 82.8104 69.4396C80.5405 67.7669 79.3394 65.2209 78.7115 63.0019C78.4003 61.9021 78.2379 60.9102 78.1537 60.1948C78.1116 59.8378 78.0893 59.5517 78.0775 59.358C78.0716 59.2611 78.0684 59.1875 78.0667 59.1398Z" fill="currentColor"/>
    <path d="M78.0667 59.1398C78.0659 59.1187 78.0654 59.1026 78.0651 59.0919C78.0654 59.0812 78.0659 59.0651 78.0667 59.0439C78.0684 58.9962 78.0716 58.9226 78.0775 58.8258C78.0893 58.6321 78.1116 58.346 78.1537 57.9891C78.2379 57.2737 78.4003 56.2819 78.7115 55.1821C79.3394 52.9632 80.5405 50.4174 82.8104 48.7448C85.039 47.1025 88.4715 46.1761 93.8489 47.516C99.0597 48.8144 106.032 52.2302 115.32 59.0919C106.032 65.9539 99.0596 69.3699 93.8489 70.6683C88.4715 72.0083 85.039 71.0819 82.8104 69.4396C80.5405 67.7669 79.3394 65.2209 78.7115 63.0019C78.4003 61.9021 78.2379 60.9102 78.1537 60.1948C78.1116 59.8378 78.0893 59.5517 78.0775 59.358C78.0716 59.2611 78.0684 59.1875 78.0667 59.1398Z" stroke="white" stroke-width="2"/>
    <path d="M78.0667 59.1398C78.0659 59.1187 78.0654 59.1026 78.0651 59.0919C78.0654 59.0812 78.0659 59.0651 78.0667 59.0439C78.0684 58.9962 78.0716 58.9226 78.0775 58.8258C78.0893 58.6321 78.1116 58.346 78.1537 57.9891C78.2379 57.2737 78.4003 56.2819 78.7115 55.1821C79.3394 52.9632 80.5405 50.4174 82.8104 48.7448C85.039 47.1025 88.4715 46.1761 93.8489 47.516C99.0597 48.8144 106.032 52.2302 115.32 59.0919C106.032 65.9539 99.0596 69.3699 93.8489 70.6683C88.4715 72.0083 85.039 71.0819 82.8104 69.4396C80.5405 67.7669 79.3394 65.2209 78.7115 63.0019C78.4003 61.9021 78.2379 60.9102 78.1537 60.1948C78.1116 59.8378 78.0893 59.5517 78.0775 59.358C78.0716 59.2611 78.0684 59.1875 78.0667 59.1398Z" stroke="white" stroke-width="2"/>
    <path d="M202.15 74.4904H159.244V69.1144H208.026V87.2425H146.492V30.9399H208.026V49.068H165.12H164.62V49.568V55.9441V56.4441H165.12H196.827V61.8201H159.244V43.692H202.15H202.65V43.192V36.816V36.316H202.15H152.368H151.868V36.816V81.3665V81.8665H152.368H202.15H202.65V81.3665V74.9904V74.4904H202.15ZM262.998 58.8054L263.876 59.8194V58.4781V30.9399H282.004V87.2425H263.605L233.222 52.0795V43.8005L265.941 81.6932L266.09 81.8665H266.319H276.128H276.628V81.3665V36.816V36.316H276.128H269.752H269.252V36.816V74.3024L236.534 36.4888L236.384 36.316H236.156H226.346H225.846V36.816V81.3665V81.8665H226.346H232.722H233.222V81.3665V63.4152L238.598 69.6184V87.2425H220.47V30.9399H238.87L262.998 58.8054ZM334.207 87.2425H328.01C328.643 86.1492 329.848 84.0426 331.421 81.2924C334.342 76.1835 338.534 68.8535 342.692 61.6714L342.693 61.6695C346.862 54.3945 351.602 46.1401 356.914 37.0686L357.355 36.316H356.483H349.126H348.839L348.694 36.564C341.426 49.0227 336.315 57.9422 330.634 67.8556C328.386 71.7773 326.05 75.8546 323.455 80.368C321.736 77.4134 315.282 66.3214 308.891 55.3149C305.233 49.0156 301.595 42.7446 298.877 38.0435C297.519 35.6929 296.39 33.7352 295.604 32.3629C295.267 31.7759 294.994 31.2967 294.792 30.9399H315.732L326.559 49.569L323.457 54.9463L312.773 36.5647L312.629 36.316H312.341H304.984H304.082L304.56 37.081C305.371 38.3791 309.594 45.6825 313.819 52.9959L314.852 54.7841C318.702 61.4505 322.315 67.7055 323.032 68.8757L323.471 69.5927L323.891 68.8641L339.913 41.0711L339.914 41.0706L345.737 30.9399H366.643C364.553 34.5108 357.368 47.0299 350.295 59.3533L349.673 60.4357C348.37 62.6989 347.029 65.0381 345.647 67.45C342.124 73.5943 338.332 80.2102 334.207 87.2425ZM415.605 30.9399H437.515L416.236 61.5442L416.146 61.6729V61.8296V87.2425H398.018V61.9931V61.837L397.929 61.7087L376.646 30.9399H398.644L402.882 37.1463L399.72 41.8903L396.051 36.5334L395.902 36.316H395.638H387.872H386.918L387.461 37.1007L403.476 60.2238V81.3665V81.8665H403.976H410.516H411.016V81.3665V60.1038L426.705 37.0977L427.238 36.316H426.292H418.526H418.264L418.115 36.5321L407.078 52.535L404.011 48.1721L415.605 30.9399Z" fill="currentColor"/>
    <path d="M202.15 74.4904H159.244V69.1144H208.026V87.2425H146.492V30.9399H208.026V49.068H165.12H164.62V49.568V55.9441V56.4441H165.12H196.827V61.8201H159.244V43.692H202.15H202.65V43.192V36.816V36.316H202.15H152.368H151.868V36.816V81.3665V81.8665H152.368H202.15H202.65V81.3665V74.9904V74.4904H202.15ZM262.998 58.8054L263.876 59.8194V58.4781V30.9399H282.004V87.2425H263.605L233.222 52.0795V43.8005L265.941 81.6932L266.09 81.8665H266.319H276.128H276.628V81.3665V36.816V36.316H276.128H269.752H269.252V36.816V74.3024L236.534 36.4888L236.384 36.316H236.156H226.346H225.846V36.816V81.3665V81.8665H226.346H232.722H233.222V81.3665V63.4152L238.598 69.6184V87.2425H220.47V30.9399H238.87L262.998 58.8054ZM334.207 87.2425H328.01C328.643 86.1492 329.848 84.0426 331.421 81.2924C334.342 76.1835 338.534 68.8535 342.692 61.6714L342.693 61.6695C346.862 54.3945 351.602 46.1401 356.914 37.0686L357.355 36.316H356.483H349.126H348.839L348.694 36.564C341.426 49.0227 336.315 57.9422 330.634 67.8556C328.386 71.7773 326.05 75.8546 323.455 80.368C321.736 77.4134 315.282 66.3214 308.891 55.3149C305.233 49.0156 301.595 42.7446 298.877 38.0435C297.519 35.6929 296.39 33.7352 295.604 32.3629C295.267 31.7759 294.994 31.2967 294.792 30.9399H315.732L326.559 49.569L323.457 54.9463L312.773 36.5647L312.629 36.316H312.341H304.984H304.082L304.56 37.081C305.371 38.3791 309.594 45.6825 313.819 52.9959L314.852 54.7841C318.702 61.4505 322.315 67.7055 323.032 68.8757L323.471 69.5927L323.891 68.8641L339.913 41.0711L339.914 41.0706L345.737 30.9399H366.643C364.553 34.5108 357.368 47.0299 350.295 59.3533L349.673 60.4357C348.37 62.6989 347.029 65.0381 345.647 67.45C342.124 73.5943 338.332 80.2102 334.207 87.2425ZM415.605 30.9399H437.515L416.236 61.5442L416.146 61.6729V61.8296V87.2425H398.018V61.9931V61.837L397.929 61.7087L376.646 30.9399H398.644L402.882 37.1463L399.72 41.8903L396.051 36.5334L395.902 36.316H395.638H387.872H386.918L387.461 37.1007L403.476 60.2238V81.3665V81.8665H403.976H410.516H411.016V81.3665V60.1038L426.705 37.0977L427.238 36.316H426.292H418.526H418.264L418.115 36.5321L407.078 52.535L404.011 48.1721L415.605 30.9399Z" stroke="white"/>
    <path d="M202.15 74.4904H159.244V69.1144H208.026V87.2425H146.492V30.9399H208.026V49.068H165.12H164.62V49.568V55.9441V56.4441H165.12H196.827V61.8201H159.244V43.692H202.15H202.65V43.192V36.816V36.316H202.15H152.368H151.868V36.816V81.3665V81.8665H152.368H202.15H202.65V81.3665V74.9904V74.4904H202.15ZM262.998 58.8054L263.876 59.8194V58.4781V30.9399H282.004V87.2425H263.605L233.222 52.0795V43.8005L265.941 81.6932L266.09 81.8665H266.319H276.128H276.628V81.3665V36.816V36.316H276.128H269.752H269.252V36.816V74.3024L236.534 36.4888L236.384 36.316H236.156H226.346H225.846V36.816V81.3665V81.8665H226.346H232.722H233.222V81.3665V63.4152L238.598 69.6184V87.2425H220.47V30.9399H238.87L262.998 58.8054ZM334.207 87.2425H328.01C328.643 86.1492 329.848 84.0426 331.421 81.2924C334.342 76.1835 338.534 68.8535 342.692 61.6714L342.693 61.6695C346.862 54.3945 351.602 46.1401 356.914 37.0686L357.355 36.316H356.483H349.126H348.839L348.694 36.564C341.426 49.0227 336.315 57.9422 330.634 67.8556C328.386 71.7773 326.05 75.8546 323.455 80.368C321.736 77.4134 315.282 66.3214 308.891 55.3149C305.233 49.0156 301.595 42.7446 298.877 38.0435C297.519 35.6929 296.39 33.7352 295.604 32.3629C295.267 31.7759 294.994 31.2967 294.792 30.9399H315.732L326.559 49.569L323.457 54.9463L312.773 36.5647L312.629 36.316H312.341H304.984H304.082L304.56 37.081C305.371 38.3791 309.594 45.6825 313.819 52.9959L314.852 54.7841C318.702 61.4505 322.315 67.7055 323.032 68.8757L323.471 69.5927L323.891 68.8641L339.913 41.0711L339.914 41.0706L345.737 30.9399H366.643C364.553 34.5108 357.368 47.0299 350.295 59.3533L349.673 60.4357C348.37 62.6989 347.029 65.0381 345.647 67.45C342.124 73.5943 338.332 80.2102 334.207 87.2425ZM415.605 30.9399H437.515L416.236 61.5442L416.146 61.6729V61.8296V87.2425H398.018V61.9931V61.837L397.929 61.7087L376.646 30.9399H398.644L402.882 37.1463L399.72 41.8903L396.051 36.5334L395.902 36.316H395.638H387.872H386.918L387.461 37.1007L403.476 60.2238V81.3665V81.8665H403.976H410.516H411.016V81.3665V60.1038L426.705 37.0977L427.238 36.316H426.292H418.526H418.264L418.115 36.5321L407.078 52.535L404.011 48.1721L415.605 30.9399Z" stroke="white"/>
</svg>