<svg width="117" height="117" viewBox="0 0 117 117" fill="none" xmlns="http://www.w3.org/2000/svg">
<path d="M64.1026 57.6439C64.1026 60.7403 61.5925 63.2505 58.496 63.2505C55.3996 63.2505 52.8894 60.7403 52.8894 57.6439C52.8894 54.5474 55.3996 52.0372 58.496 52.0372C61.5925 52.0372 64.1026 54.5474 64.1026 57.6439Z" fill="white" stroke="black" stroke-width="2"/>
<path d="M43.6098 40.0256L43.6096 40.0254C41.1088 37.4343 38.1035 35.6294 34.8976 34.611C35.8012 37.8496 37.4995 40.9177 40.0003 43.5088L43.6098 40.0256ZM43.6098 40.0256C46.1108 42.6157 47.8092 45.683 48.7127 48.9224M43.6098 40.0256L48.7127 48.9224M48.7127 48.9224C45.507 47.9048 42.5015 46.0991 40.0004 43.5089L48.7127 48.9224Z" fill="white" stroke="black" stroke-width="2"/>
<path d="M43.5089 76.9902L43.5089 76.9902C46.0988 74.4906 47.9045 71.4846 48.9222 68.2788C45.684 69.1835 42.6167 70.8827 40.0254 73.3825L43.5089 76.9902ZM43.5089 76.9902C40.9167 79.4921 37.8495 81.1897 34.611 82.0949M43.5089 76.9902L34.611 82.0949M34.611 82.0949C35.6289 78.8899 37.4353 75.8848 40.0253 73.3826L34.611 82.0949Z" fill="white" stroke="black" stroke-width="2"/>
<path d="M73.3822 76.9663L73.3825 76.9666C75.8832 79.5577 78.8892 81.3634 82.0939 82.3812C81.1892 79.1427 79.4902 76.0747 76.9918 73.4847L73.3822 76.9663ZM73.3822 76.9663C70.8811 74.3772 69.1817 71.31 68.2779 68.0705M73.3822 76.9663L68.2779 68.0705M68.2779 68.0705C71.4835 69.0872 74.4891 70.8929 76.9915 73.4844L68.2779 68.0705Z" fill="white" stroke="black" stroke-width="2"/>
<path d="M73.4858 40.0021L73.4863 40.0016C76.0753 37.5006 79.1434 35.8012 82.3821 34.8984C81.3653 38.103 79.5594 41.1084 76.9668 43.6095L76.9663 43.61C74.3767 46.1116 71.3098 47.8082 68.0709 48.7132C69.0877 45.5079 70.8935 42.5029 73.4858 40.0021Z" fill="white" stroke="black" stroke-width="2"/>
<path d="M58.5439 38.9253C58.5227 38.9261 58.5067 38.9266 58.496 38.9269C58.4853 38.9266 58.4692 38.9261 58.448 38.9253C58.4003 38.9236 58.3267 38.9204 58.2299 38.9145C58.0361 38.9027 57.7501 38.8804 57.3931 38.8383C56.6777 38.7541 55.6859 38.5917 54.5862 38.2805C52.3673 37.6526 49.8214 36.4515 48.1488 34.1816C46.5065 31.953 45.5802 28.5205 46.9201 23.1431C48.2185 17.9323 51.6343 10.9595 58.4959 1.67248C65.3576 10.9599 68.7734 17.9329 70.0718 23.1437C71.4117 28.5212 70.4853 31.9536 68.8431 34.1821C67.1705 36.4519 64.6247 37.6529 62.4058 38.2807C61.306 38.5919 60.3142 38.7542 59.5988 38.8384C59.2419 38.8804 58.9558 38.9027 58.7621 38.9145C58.6652 38.9204 58.5916 38.9236 58.5439 38.9253Z" fill="white" stroke="black" stroke-width="2"/>
<path d="M58.448 78.0667C58.4692 78.0659 58.4852 78.0655 58.4959 78.0652C58.5066 78.0655 58.5227 78.0659 58.5439 78.0667C58.5916 78.0685 58.6652 78.0717 58.762 78.0776C58.9557 78.0893 59.2418 78.1117 59.5987 78.1537C60.3141 78.2379 61.3058 78.4003 62.4055 78.7115C64.6243 79.3394 67.17 80.5405 68.8425 82.8103C70.4847 85.0388 71.411 88.4712 70.0712 93.8484C68.7729 99.0589 65.3572 106.031 58.4959 115.318C51.6343 106.031 48.2185 99.0589 46.9201 93.8484C45.5802 88.4712 46.5065 85.0388 48.1488 82.8103C49.8214 80.5405 52.3672 79.3394 54.5862 78.7115C55.6859 78.4003 56.6777 78.2379 57.3931 78.1537C57.7501 78.1117 58.0361 78.0893 58.2299 78.0776C58.3267 78.0717 58.4003 78.0685 58.448 78.0667Z" fill="white" stroke="black" stroke-width="2"/>
<path d="M38.9253 58.4481C38.9261 58.4693 38.9266 58.4853 38.9269 58.496C38.9268 58.4988 38.9267 58.5019 38.9266 58.5053C38.9263 58.5153 38.9259 58.5283 38.9253 58.544C38.9236 58.5917 38.9204 58.6653 38.9145 58.7621C38.9027 58.9559 38.8804 59.242 38.8383 59.5989C38.7541 60.3143 38.5917 61.3061 38.2805 62.4058C37.6526 64.6248 36.4515 67.1706 34.1816 68.8432C31.953 70.4855 28.5205 71.4118 23.1431 70.0719C17.9323 68.7735 10.9595 65.3577 1.67246 58.4961C10.9595 51.6344 17.9323 48.2186 23.1431 46.9202C28.5205 45.5803 31.953 46.5067 34.1816 48.1489C36.4515 49.8216 37.6526 52.3674 38.2805 54.5863C38.5917 55.686 38.7541 56.6778 38.8383 57.3932C38.8804 57.7502 38.9027 58.0362 38.9145 58.23C38.9204 58.3268 38.9236 58.4004 38.9253 58.4481Z" fill="white" stroke="black" stroke-width="2"/>
<path d="M78.0667 58.544C78.0659 58.5228 78.0655 58.5068 78.0652 58.4961C78.0655 58.4854 78.0659 58.4693 78.0667 58.4481C78.0685 58.4004 78.0717 58.3268 78.0776 58.23C78.0893 58.0362 78.1117 57.7502 78.1537 57.3932C78.2379 56.6778 78.4003 55.686 78.7115 54.5863C79.3395 52.3674 80.5406 49.8216 82.8104 48.1489C85.0391 46.5067 88.4716 45.5803 93.849 46.9202C99.0597 48.2186 106.033 51.6344 115.32 58.4961C106.033 65.3581 99.0597 68.7741 93.849 70.0725C88.4716 71.4125 85.0391 70.4861 82.8105 68.8437C80.5406 67.171 79.3395 64.6251 78.7115 62.406C78.4003 61.3063 78.2379 60.3144 78.1537 59.599C78.1117 59.242 78.0894 58.9559 78.0776 58.7622C78.0717 58.6653 78.0685 58.5917 78.0667 58.544Z" fill="white" stroke="black" stroke-width="2"/>
</svg>
